<?xml version="1.0" encoding="UTF-8"?>
<svg width="1200pt" height="1200pt" version="1.1" viewBox="0 0 1200 1200" xmlns="http://www.w3.org/2000/svg">
 <g fill="#4c25e0">
  <path d="m600 874.59c213.52 0 387.23-173.71 387.23-387.23 0-213.52-173.71-387.23-387.23-387.23s-387.23 173.71-387.23 387.23 173.71 387.23 387.23 387.23zm0-649.93c71.406 0 129.5 58.09 129.5 129.5 0 71.406-58.098 129.5-129.5 129.5s-129.5-58.094-129.5-129.5c0-71.41 58.098-129.5 129.5-129.5zm-91.039 256.12c25.664 18.504 57.051 29.539 91.039 29.539 33.984 0 65.371-11.035 91.035-29.535 97.004 25.492 178.48 90.449 225.23 179.53-61.332 111.7-180.09 187.61-316.27 187.61-136.19 0-254.95-75.91-316.28-187.62 46.758-89.07 128.24-154.03 225.24-179.52z"/>
  <path d="m284.74 919.79c-7.3711 0-13.332 5.9727-13.332 13.332v153.43c0 7.3633 5.9609 13.332 13.332 13.332h630.52c7.3711 0 13.332-5.9727 13.332-13.332v-153.43c0-7.3633-5.9609-13.332-13.332-13.332zm183.54 103.38h-58.582v-26.668h58.582zm107.67 0h-58.582v-26.668h58.582zm106.68 0h-58.582v-26.668h58.582zm107.66 0h-58.578v-26.668h58.578z"/>
 </g>
</svg>
