<svg xmlns="http://www.w3.org/2000/svg" version="1.1" x="0px" y="0px" viewBox="0 0 90 90"
     style="enable-background:new 0 0 90 90;" xml:space="preserve"><path d="M45,65.593811c16.0136719,0,29.0419922-13.0283203,29.0419922-29.0420532  C74.0419922,20.5375977,61.0136719,7.5092773,45,7.5092773S15.9580078,20.5375977,15.9580078,36.5517578  C15.9580078,52.5654907,28.9863281,65.593811,45,65.593811z M45,16.8491821c5.3555298,0,9.7128906,4.3568726,9.7128906,9.7124023  c0,5.3554077-4.3573608,9.7124023-9.7128906,9.7124023s-9.7128906-4.3569946-9.7128906-9.7124023  C35.2871094,21.2060547,39.6444702,16.8491821,45,16.8491821z M38.1721191,36.0586548  c1.9246826,1.3877563,4.2788696,2.215332,6.8278809,2.215332c2.5488892,0,4.9028931-0.8275146,6.8275757-2.2150879  c7.2753296,1.9118042,13.3860474,6.7836914,16.8926392,13.4644775C64.1203003,57.9011841,55.2133789,63.593811,45,63.593811  c-10.2139282,0-19.1213989-5.6932373-23.7210083-14.0717163C24.7858276,42.84198,30.8970947,37.9700928,38.1721191,36.0586548z"></path><path d="M21.3555298,68.9838867c-0.5528564,0-1,0.4478149-1,1v11.506897c0,0.5521851,0.4471436,1,1,1h47.2889404  c0.5528564,0,1-0.4478149,1-1v-11.506897c0-0.5521851-0.4471436-1-1-1H21.3555298z M35.1210938,76.7373047H30.727478v-2h4.3936157  V76.7373047z M43.1962891,76.7373047h-4.3936157v-2h4.3936157V76.7373047z M51.1973267,76.7373047h-4.3936157v-2h4.3936157  V76.7373047z M59.2723999,76.7373047h-4.3934937v-2h4.3934937V76.7373047z"></path></svg>